<?xml version="1.0" encoding="UTF-8"?>
<svg version="1.1" xmlns="http://www.w3.org/2000/svg" width="500" height="500">
<path d="M0 0 C0.76699219 0.14985352 1.53398437 0.29970703 2.32421875 0.45410156 C12.75112848 2.56730057 22.93439219 5.57377908 33 9 C33.6585498 9.22413574 34.31709961 9.44827148 34.99560547 9.67919922 C54.56316232 16.44688974 75.48985186 26.37253501 92 39 C92 39.66 92 40.32 92 41 C92.71671875 41.24492188 93.4334375 41.48984375 94.171875 41.7421875 C99.47748599 44.10186532 103.61895757 48.25078138 108 52 C108.89589844 52.75925781 109.79179687 53.51851562 110.71484375 54.30078125 C115.38075414 58.33277648 115.38075414 58.33277648 117 60 C117 60.66 117 61.32 117 62 C117.99 62.33 118.98 62.66 120 63 C120 63.66 120 64.32 120 65 C120.99 65.33 121.98 65.66 123 66 C123 66.66 123 67.32 123 68 C123.59296875 68.2578125 124.1859375 68.515625 124.796875 68.78125 C127.17660965 70.09769895 128.50978792 71.42580782 130.25 73.5 C130.77078125 74.1084375 131.2915625 74.716875 131.828125 75.34375 C133 77 133 77 133 79 C133.99 79.33 134.98 79.66 136 80 C138.04296875 82.43359375 138.04296875 82.43359375 140.1875 85.4375 C140.90292969 86.42621094 141.61835938 87.41492188 142.35546875 88.43359375 C144 91 144 91 144 93 C144.66 93 145.32 93 146 93 C147.44987645 95.16102093 148.76909092 97.30944703 150.0625 99.5625 C150.87690774 100.96004149 151.69203043 102.35716655 152.5078125 103.75390625 C152.92321289 104.46820801 153.33861328 105.18250977 153.76660156 105.91845703 C154.88975646 107.81394767 156.0510114 109.67411007 157.2421875 111.52734375 C162.00032805 118.99913612 165.8318867 126.69094387 169.375 134.8125 C169.79193115 135.76705078 170.2088623 136.72160156 170.63842773 137.70507812 C172.88845668 142.99321954 174.79072609 148.26739018 176.36938477 153.79296875 C177.15969131 156.55888867 178.08122644 159.27443326 179 162 C182.23350789 172.22416867 184.45834224 182.39430439 186 193 C186.17136475 194.14573486 186.34272949 195.29146973 186.51928711 196.47192383 C187.93192259 206.66042331 188.36012036 216.65845695 188.3125 226.9375 C188.31100952 227.73893433 188.30951904 228.54036865 188.3079834 229.36608887 C188.24155721 249.35442311 186.21361749 268.6740203 181 288 C180.59587891 289.58361328 180.59587891 289.58361328 180.18359375 291.19921875 C178.97572683 295.8346452 177.62230118 300.34850367 175.86328125 304.8046875 C175.20975326 306.46660031 174.58757467 308.14088539 173.98046875 309.8203125 C167.32332396 327.94377691 157.78035231 347.59743409 146 363 C145.34 363 144.68 363 144 363 C143.7421875 363.55171875 143.484375 364.1034375 143.21875 364.671875 C141.82036875 367.34314175 140.21236695 369.76851909 138.5 372.25 C137.8915625 373.14203125 137.283125 374.0340625 136.65625 374.953125 C136.1096875 375.62859375 135.563125 376.3040625 135 377 C134.34 377 133.68 377 133 377 C132.731875 377.58265625 132.46375 378.1653125 132.1875 378.765625 C130.98519009 381.02786601 129.66174087 382.80576318 128 384.75 C127.484375 385.36359375 126.96875 385.9771875 126.4375 386.609375 C125 388 125 388 123 388 C122.67 388.99 122.34 389.98 122 391 C121.34 391 120.68 391 120 391 C119.67 391.99 119.34 392.98 119 394 C118.34 394 117.68 394 117 394 C116.73832031 394.59554688 116.47664063 395.19109375 116.20703125 395.8046875 C112.8291758 401.94823042 105.58840221 406.1734918 100.125 410.4375 C99.55354248 410.88689941 98.98208496 411.33629883 98.39331055 411.79931641 C94.23639325 415 94.23639325 415 92 415 C92 415.66 92 416.32 92 417 C89.83897907 418.44987645 87.69055297 419.76909092 85.4375 421.0625 C84.03995851 421.87690774 82.64283345 422.69203043 81.24609375 423.5078125 C80.17464111 424.13091309 80.17464111 424.13091309 79.08154297 424.76660156 C77.18605233 425.88975646 75.32588993 427.0510114 73.47265625 428.2421875 C66.00086388 433.00032805 58.30905613 436.8318867 50.1875 440.375 C49.23294922 440.79193115 48.27839844 441.2088623 47.29492188 441.63842773 C42.03261173 443.87746584 36.79415994 445.78113294 31.2824707 447.31103516 C28.94202738 447.98087394 28.94202738 447.98087394 26.51757812 448.99584961 C-12.5835883 464.5915728 -62.97272193 462.69398309 -103 452 C-104.58554687 451.59587891 -104.58554687 451.59587891 -106.203125 451.18359375 C-110.83685161 449.97452028 -115.34971874 448.62182155 -119.8046875 446.86328125 C-121.46660031 446.20975326 -123.14088539 445.58757467 -124.8203125 444.98046875 C-142.94377691 438.32332396 -162.59743409 428.78035231 -178 417 C-178 416.34 -178 415.68 -178 415 C-178.71671875 414.75507813 -179.4334375 414.51015625 -180.171875 414.2578125 C-185.47748599 411.89813468 -189.61895757 407.74921862 -194 404 C-194.89589844 403.24074219 -195.79179687 402.48148437 -196.71484375 401.69921875 C-201.38075414 397.66722352 -201.38075414 397.66722352 -203 396 C-203 395.34 -203 394.68 -203 394 C-203.99 393.67 -204.98 393.34 -206 393 C-206 392.34 -206 391.68 -206 391 C-206.99 390.67 -207.98 390.34 -209 390 C-209 389.34 -209 388.68 -209 388 C-209.59296875 387.7421875 -210.1859375 387.484375 -210.796875 387.21875 C-213.17660965 385.90230105 -214.50978792 384.57419218 -216.25 382.5 C-216.77078125 381.8915625 -217.2915625 381.283125 -217.828125 380.65625 C-219 379 -219 379 -219 377 C-219.99 376.67 -220.98 376.34 -222 376 C-224.04296875 373.56640625 -224.04296875 373.56640625 -226.1875 370.5625 C-227.26064453 369.07943359 -227.26064453 369.07943359 -228.35546875 367.56640625 C-230 365 -230 365 -230 363 C-230.66 363 -231.32 363 -232 363 C-233.23339844 361.32275391 -233.23339844 361.32275391 -234.609375 358.9765625 C-235.11726563 358.11933594 -235.62515625 357.26210938 -236.1484375 356.37890625 C-236.67695313 355.47011719 -237.20546875 354.56132812 -237.75 353.625 C-238.26304687 352.75488281 -238.77609375 351.88476562 -239.3046875 350.98828125 C-240.3511909 349.21343252 -241.39351733 347.43611502 -242.43188477 345.65649414 C-243.4533222 343.92610948 -244.49212756 342.20582344 -245.55053711 340.49780273 C-249.27792825 334.47341652 -252.28695157 328.32668799 -255.0625 321.8125 C-255.4965918 320.79857178 -255.93068359 319.78464355 -256.37792969 318.73999023 C-259.67935776 310.93542917 -262.69627696 303.16416972 -265 295 C-265.36303223 293.7318042 -265.36303223 293.7318042 -265.73339844 292.43798828 C-278.68494654 246.38715008 -277.40745843 197.26428315 -262 152 C-261.77586426 151.3414502 -261.55172852 150.68290039 -261.32080078 150.00439453 C-254.55311026 130.43683768 -244.62746499 109.51014814 -232 93 C-231.34 93 -230.68 93 -230 93 C-229.7421875 92.44828125 -229.484375 91.8965625 -229.21875 91.328125 C-227.82036875 88.65685825 -226.21236695 86.23148091 -224.5 83.75 C-223.8915625 82.85796875 -223.283125 81.9659375 -222.65625 81.046875 C-222.1096875 80.37140625 -221.563125 79.6959375 -221 79 C-220.34 79 -219.68 79 -219 79 C-218.731875 78.41734375 -218.46375 77.8346875 -218.1875 77.234375 C-216.98519009 74.97213399 -215.66174087 73.19423682 -214 71.25 C-213.484375 70.63640625 -212.96875 70.0228125 -212.4375 69.390625 C-211 68 -211 68 -209 68 C-208.505 66.515 -208.505 66.515 -208 65 C-207.34 65 -206.68 65 -206 65 C-205.505 63.515 -205.505 63.515 -205 62 C-204.34 62 -203.68 62 -203 62 C-202.76152344 61.42765625 -202.52304688 60.8553125 -202.27734375 60.265625 C-197.77258855 52.27553932 -187.60044342 45.84264364 -180 41 C-179.34 41 -178.68 41 -178 41 C-178 40.34 -178 39.68 -178 39 C-175.92724609 37.50708008 -175.92724609 37.50708008 -173.0234375 35.76953125 C-171.96769531 35.13490967 -170.91195312 34.50028809 -169.82421875 33.84643555 C-168.67499197 33.16758815 -167.525241 32.48962748 -166.375 31.8125 C-165.79733887 31.47030426 -165.21967773 31.12810852 -164.62451172 30.77554321 C-144.78968185 19.03365258 -123.67472752 8.39249785 -100.9140625 3.81640625 C-97.75793403 3.15809203 -94.72699282 2.38342347 -91.62890625 1.5078125 C-63.28343758 -6.31020694 -28.72092705 -5.65099771 0 0 Z M-80 15 C-81.07145264 15.17619873 -81.07145264 15.17619873 -82.16455078 15.35595703 C-107.54017537 19.62144617 -131.38869999 29.21008982 -153.3515625 42.45703125 C-156.17706593 44.10315788 -159.06219862 45.56556033 -162 47 C-162 47.66 -162 48.32 -162 49 C-163.98 49.66 -165.96 50.32 -168 51 C-168 51.66 -168 52.32 -168 53 C-169.65 53.66 -171.3 54.32 -173 55 C-173 55.66 -173 56.32 -173 57 C-173.7734375 57.3403125 -173.7734375 57.3403125 -174.5625 57.6875 C-177.89547005 59.48217618 -181.14703671 61.49965015 -184 64 C-184 64.66 -184 65.32 -184 66 C-184.58136719 66.26554687 -185.16273438 66.53109375 -185.76171875 66.8046875 C-193.51057523 70.94282028 -201.34953021 79.00795207 -205 87 C-205.66 87 -206.32 87 -207 87 C-208.81628776 88.94375954 -208.81628776 88.94375954 -210.625 91.375 C-211.25664062 92.18710938 -211.88828125 92.99921875 -212.5390625 93.8359375 C-214.18650808 95.84109879 -214.18650808 95.84109879 -214 98 C-214.66 98 -215.32 98 -216 98 C-216.66 99.65 -217.32 101.3 -218 103 C-218.66 103 -219.32 103 -220 103 C-220.66 104.98 -221.32 106.96 -222 109 C-222.66 109 -223.32 109 -224 109 C-224.52787109 109.98226562 -224.52787109 109.98226562 -225.06640625 110.984375 C-227.72631282 115.90138244 -230.44839686 120.73670109 -233.375 125.5 C-241.28191448 139.0098274 -246.44304327 154.0806006 -251 169 C-251.57041016 170.86011719 -251.57041016 170.86011719 -252.15234375 172.7578125 C-260.71049686 202.662906 -260.91877793 234.47924364 -256 265 C-255.88253418 265.73283203 -255.76506836 266.46566406 -255.64404297 267.22070312 C-251.42299397 292.55928546 -241.76302417 316.43327584 -228.54296875 338.3515625 C-226.89684212 341.17706593 -225.43443967 344.06219862 -224 347 C-223.34 347 -222.68 347 -222 347 C-221.34 348.98 -220.68 350.96 -220 353 C-219.34 353 -218.68 353 -218 353 C-217.34 354.65 -216.68 356.3 -216 358 C-215.34 358 -214.68 358 -214 358 C-213.6596875 358.7734375 -213.6596875 358.7734375 -213.3125 359.5625 C-211.51782382 362.89547005 -209.50034985 366.14703671 -207 369 C-206.34 369 -205.68 369 -205 369 C-204.60167969 369.87205078 -204.60167969 369.87205078 -204.1953125 370.76171875 C-200.05717972 378.51057523 -191.99204793 386.34953021 -184 390 C-184 390.66 -184 391.32 -184 392 C-182.05624046 393.81628776 -182.05624046 393.81628776 -179.625 395.625 C-178.81289062 396.25664062 -178.00078125 396.88828125 -177.1640625 397.5390625 C-175.15890121 399.18650808 -175.15890121 399.18650808 -173 399 C-173 399.66 -173 400.32 -173 401 C-170.88172962 402.50659345 -168.77299992 403.89101233 -166.5625 405.25 C-165.25858345 406.06555768 -163.95519658 406.88196285 -162.65234375 407.69921875 C-161.70077393 408.29355713 -161.70077393 408.29355713 -160.72998047 408.89990234 C-158.64826924 410.22366622 -156.63855271 411.63770539 -154.625 413.0625 C-114.26240748 440.09570204 -61.17685949 448.32162916 -13.8125 442.25 C-11.93643066 442.01470581 -11.93643066 442.01470581 -10.02246094 441.7746582 C23.15818519 437.19794167 53.28971642 423.24488969 81 405 C81.57363281 404.64228516 82.14726562 404.28457031 82.73828125 403.91601562 C84.1923529 402.99487656 85.60104321 402.00286661 87 401 C87 400.34 87 399.68 87 399 C87.515625 398.773125 88.03125 398.54625 88.5625 398.3125 C91.89547005 396.51782382 95.14703671 394.50034985 98 392 C98 391.34 98 390.68 98 390 C98.58136719 389.73445313 99.16273438 389.46890625 99.76171875 389.1953125 C107.51057523 385.05717972 115.34953021 376.99204793 119 369 C119.66 369 120.32 369 121 369 C122.81628776 367.05624046 122.81628776 367.05624046 124.625 364.625 C125.25664062 363.81289063 125.88828125 363.00078125 126.5390625 362.1640625 C128.18650808 360.15890121 128.18650808 360.15890121 128 358 C128.66 358 129.32 358 130 358 C131.59348861 356.05385473 131.59348861 356.05385473 133.125 353.625 C133.66382813 352.81289063 134.20265625 352.00078125 134.7578125 351.1640625 C136.1659413 349.12677974 136.1659413 349.12677974 136 347 C136.66 347 137.32 347 138 347 C138.53625 345.88625 139.0725 344.7725 139.625 343.625 C141.23281339 340.39805059 142.98684997 337.32072821 144.875 334.25 C157.60378988 313.18385275 166.00357056 289.25268019 170 265 C170.13680176 264.19949219 170.27360352 263.39898437 170.41455078 262.57421875 C175.53057507 231.79732402 174.68924998 198.84695537 165 169 C164.56481336 167.5925378 164.12993559 166.18498007 163.6953125 164.77734375 C158.14491201 147.17360462 151.23348253 130.12809746 140.828125 114.80078125 C139 112 139 112 138 109 C137.34 109 136.68 109 136 109 C135.7525 108.29875 135.505 107.5975 135.25 106.875 C133.82819762 103.60485452 132.12753712 100.858878 130 98 C129.34 98 128.68 98 128 98 C127.773125 97.484375 127.54625 96.96875 127.3125 96.4375 C125.51782382 93.10452995 123.50034985 89.85296329 121 87 C120.34 87 119.68 87 119 87 C118.73445313 86.41863281 118.46890625 85.83726563 118.1953125 85.23828125 C114.05717972 77.48942477 105.99204793 69.65046979 98 66 C98 65.34 98 64.68 98 64 C96.05624046 62.18371224 96.05624046 62.18371224 93.625 60.375 C92.81289063 59.74335937 92.00078125 59.11171875 91.1640625 58.4609375 C89.15890121 56.81349192 89.15890121 56.81349192 87 57 C87 56.34 87 55.68 87 55 C85.35 54.34 83.7 53.68 82 53 C82 52.34 82 51.68 82 51 C80.02 50.34 78.04 49.68 76 49 C76 48.34 76 47.68 76 47 C74.3603125 46.2265625 74.3603125 46.2265625 72.6875 45.4375 C69.31202497 43.76443846 66.24523965 41.85748799 63.125 39.75 C39.10825292 24.26812998 9.07425127 16.38236941 -19 13 C-19.77496826 12.90428711 -20.54993652 12.80857422 -21.34838867 12.70996094 C-40.90387515 10.50574693 -60.65416036 11.71573328 -80 15 Z " fill="#111111" transform="translate(293,22)"/>
<path d="M0 0 C3.59674334 2.76016748 6.82131805 5.77147808 10 9 C10.55429688 9.55558594 11.10859375 10.11117187 11.6796875 10.68359375 C17.34933285 16.82826344 23.92350936 25.60649324 25 34 C25.66 34 26.32 34 27 34 C27.77351525 35.97812004 28.54365704 37.95755929 29.3125 39.9375 C29.95638672 41.59072266 29.95638672 41.59072266 30.61328125 43.27734375 C31.07089844 44.50582031 31.52851563 45.73429687 32 47 C32.25676514 47.68151123 32.51353027 48.36302246 32.77807617 49.06518555 C34.88374536 54.95096675 35.90154704 60.74865727 36.6875 66.9375 C36.88182617 68.32485352 36.88182617 68.32485352 37.08007812 69.74023438 C38.19457423 78.15497482 39.30398715 86.97603121 36 95 C31.47586689 100.52949603 26.76628336 102.95275824 19.75 103.8125 C8.1069536 104.53723631 0.4155105 100.60243145 -8.875 93.9375 C-12.76871147 90.38735131 -15.56142131 87.40913717 -16 82 C-15.67 81.34 -15.34 80.68 -15 80 C-4.44 80 6.12 80 17 80 C13.77051219 44.21744245 13.77051219 44.21744245 -4.38671875 14.2421875 C-8.33915689 11.19890584 -13.26247645 11.4453631 -18 12 C-23.34693213 13.81185177 -31.44213671 17.88427343 -34 23 C-34.66 23 -35.32 23 -36 23 C-36.39832031 24.11955078 -36.39832031 24.11955078 -36.8046875 25.26171875 C-37.98407299 27.96351361 -39.1978243 29.61193426 -41.125 31.8125 C-45.8445245 37.70207328 -48.91221984 44.32959756 -52.11279297 51.11962891 C-52.87542255 52.73596712 -53.65663212 54.34351558 -54.44140625 55.94921875 C-60.29927382 68.23421375 -63.73316765 81.37539215 -67.33666992 94.44995117 C-69.18473841 101.14712621 -71.13914928 107.79921707 -73.1875 114.4375 C-75.96986615 123.52875144 -78.08079362 132.69278069 -80 142 C-80.20367187 142.90621094 -80.40734375 143.81242188 -80.6171875 144.74609375 C-85.34362264 166.30590944 -85.47423095 188.41716211 -81 210 C-80.7834375 211.05703125 -80.566875 212.1140625 -80.34375 213.203125 C-78.84155032 219.46229032 -76.23574014 224.89955191 -73.20703125 230.56640625 C-72 233 -72 233 -72 235 C-71.34 235 -70.68 235 -70 235 C-69.484375 235.825 -68.96875 236.65 -68.4375 237.5 C-61.95619565 247.60320972 -50.80169932 254.06086443 -39.375 256.875 C-10.10103768 262.24402366 18.28019639 251.29670761 42.3293457 235.07885742 C50.34509058 229.50171732 58.86171138 223.4473168 65.57910156 216.32592773 C67 215 67 215 69 215 C69 214.34 69 213.68 69 213 C69.66 213 70.32 213 71 213 C71 212.34 71 211.68 71 211 C71.66 211 72.32 211 73 211 C73 210.34 73 209.68 73 209 C73.66 209 74.32 209 75 209 C75 208.34 75 207.68 75 207 C75.66 207 76.32 207 77 207 C77.24621094 206.43539062 77.49242187 205.87078125 77.74609375 205.2890625 C79.21406905 202.60920728 80.9935669 200.62041197 83.0625 198.375 C85.85780458 195.41210833 85.85780458 195.41210833 88 192 C88.66 192 89.32 192 90 192 C90.22816406 191.48695313 90.45632813 190.97390625 90.69140625 190.4453125 C92.50027462 187.06515848 94.73226343 184.00296804 96.9375 180.875 C101.5472371 174.25930101 105.84092272 167.5011028 109.99804688 160.59350586 C112.88145166 155.80632787 115.86581271 151.10559309 118.9375 146.4375 C122.18950122 141.47276397 124.81022173 136.52204955 127 131 C115.56510584 134.153846 104.0752133 137.39719848 93.125 142 C87.95344419 144.14324544 82.62171494 145.6511935 77.23876953 147.16210938 C73.75667399 148.1479304 70.36335245 149.20996234 66.98828125 150.51953125 C62.99714579 152.05394249 58.96697806 153.13110573 54.8125 154.125 C54.12736328 154.29386719 53.44222656 154.46273437 52.73632812 154.63671875 C50.82718229 155.10343968 48.91370191 155.55232685 47 156 C45.75669922 156.29970703 45.75669922 156.29970703 44.48828125 156.60546875 C41.10303914 157.14221828 37.80092811 157.17060686 34.375 157.1875 C33.06273437 157.20167969 31.75046875 157.21585938 30.3984375 157.23046875 C27 157 27 157 24 155 C22.94841822 151.87221828 23.19867776 149.17149827 24 146 C29.31901154 137.14861927 38.01153069 132.38898326 47 128 C47.77085937 127.61714844 48.54171875 127.23429688 49.3359375 126.83984375 C54.16334003 124.85154577 58.78321338 124.90508852 63.9375 125 C76.018055 125.22102788 85.38397518 120.66688425 96.30859375 115.98828125 C101.14493718 113.92445068 106.02755307 112.00734662 110.94921875 110.15625 C113.08589041 109.3464487 115.21288563 108.51086441 117.33203125 107.65625 C126.82069903 103.85636442 135.0074931 101.86114132 145.25 101.6875 C146.26090698 101.66079224 146.26090698 101.66079224 147.29223633 101.63354492 C151.92213909 101.64099126 155.12492705 102.4605661 159 105 C161.4822041 108.49059951 161.24130196 111.3622919 160.66015625 115.45703125 C158.4980799 123.78550289 152.64837702 131.23403731 148.15234375 138.45703125 C144.96900022 143.63788234 142.03487888 148.96129194 139.078125 154.2734375 C134.8289487 161.89615488 130.3658188 169.34257821 125.75 176.75 C125.11964844 177.7709375 124.48929688 178.791875 123.83984375 179.84375 C119.511216 186.79071266 114.88520692 193.43465976 110 200 C109.23429688 201.05574219 108.46859375 202.11148438 107.6796875 203.19921875 C106.41940301 204.93688373 105.15614199 206.67239207 103.890625 208.40625 C102.6644871 210.08838961 101.4452868 211.77561669 100.234375 213.46875 C99.70328125 214.2009375 99.1721875 214.933125 98.625 215.6875 C97.93277344 216.65236328 97.93277344 216.65236328 97.2265625 217.63671875 C96.82179688 218.08660156 96.41703125 218.53648437 96 219 C95.34 219 94.68 219 94 219 C93.77441406 219.54269531 93.54882812 220.08539063 93.31640625 220.64453125 C91.59960283 223.71643767 89.3311269 226.13951125 86.9375 228.6875 C86.44145264 229.21859375 85.94540527 229.7496875 85.43432617 230.296875 C84.42660349 231.37143395 83.41629228 232.44357163 82.40332031 233.51318359 C81.2024181 234.78553823 80.01749988 236.07294688 78.8359375 237.36328125 C69.55584659 247.16291393 57.90442886 255.66127814 46 262 C45.43667969 262.3079248 44.87335938 262.61584961 44.29296875 262.93310547 C39.03443486 265.70595463 33.71510042 267.52363182 28 269.125 C27.07864258 269.38361816 26.15728516 269.64223633 25.20800781 269.90869141 C-0.31176581 276.82158676 -36.0733026 277.15784588 -60 264 C-66.32093079 259.9715131 -73.04462498 255.66328573 -78 250 C-78 249.34 -78 248.68 -78 248 C-78.66 248 -79.32 248 -80 248 C-80.99 245.525 -80.99 245.525 -82 243 C-82.66 243 -83.32 243 -84 243 C-97.09160318 219.18412057 -103.39330638 196.88168097 -103.26074219 169.67797852 C-103.25002911 167.06958707 -103.26069581 164.46188623 -103.2734375 161.85351562 C-103.28664912 147.63570725 -101.65875688 134.11009588 -98.6875 120.1875 C-98.4694873 119.15979492 -98.25147461 118.13208984 -98.02685547 117.07324219 C-93.53995483 96.33221336 -87.40510023 75.91808623 -77.93115234 56.87695312 C-76.92417735 54.84716189 -75.94025105 52.80702066 -74.95703125 50.765625 C-74.26403627 49.34325482 -73.57004827 47.92136796 -72.875 46.5 C-72.56248291 45.85321289 -72.24996582 45.20642578 -71.92797852 44.54003906 C-69.96890197 40.59633057 -67.72857438 37.07422088 -65.11523438 33.53125 C-63.87960167 31.8346895 -62.8169287 30.09218364 -61.8125 28.25 C-60 25 -60 25 -58 22 C-57.34 22 -56.68 22 -56 22 C-55.566875 21.1028125 -55.566875 21.1028125 -55.125 20.1875 C-54 18 -54 18 -52 15 C-51.34 15 -50.68 15 -50 15 C-50 14.34 -50 13.68 -50 13 C-49.34 13 -48.68 13 -48 13 C-47.79117188 12.4328125 -47.58234375 11.865625 -47.3671875 11.28125 C-42.93808486 3.89097589 -31.90587379 -1.12605314 -23.90625 -3.41015625 C-15.27963786 -5.16098748 -7.66577773 -4.514962 0 0 Z " fill="#0E0E0E" transform="translate(242,119)"/>
<path d="M0 0 C0 3 0 3 -2.046875 5.4453125 C-2.93890625 6.32960938 -3.8309375 7.21390625 -4.75 8.125 C-5.63171875 9.01445313 -6.5134375 9.90390625 -7.421875 10.8203125 C-9.79524738 12.82689097 -10.97723274 13.64687298 -14 14 C-13.67 13.34 -13.34 12.68 -13 12 C-12.34 12 -11.68 12 -11 12 C-10.67 11.01 -10.34 10.02 -10 9 C-9.34 9 -8.68 9 -8 9 C-7.79375 8.443125 -7.5875 7.88625 -7.375 7.3125 C-5.44999226 4.07498698 -2.96149098 2.31768859 0 0 Z " fill="#595959" transform="translate(98,75)"/>
<path d="M0 0 C0.66 0.33 1.32 0.66 2 1 C-5.29840547 9.44646925 -5.29840547 9.44646925 -9 13 C-9.66 12.67 -10.32 12.34 -11 12 C-9.71937515 10.2925002 -8.38232443 8.62626404 -7 7 C-6.34 7 -5.68 7 -5 7 C-5 6.34 -5 5.68 -5 5 C-4.34 5 -3.68 5 -3 5 C-2.690625 4.360625 -2.38125 3.72125 -2.0625 3.0625 C-1 1 -1 1 0 0 Z " fill="#646464" transform="translate(197,127)"/>
<path d="M0 0 C0 3.58912412 -0.66436554 4.10857029 -3 6.6875 C-3.556875 7.31011719 -4.11375 7.93273437 -4.6875 8.57421875 C-5.120625 9.04472656 -5.55375 9.51523437 -6 10 C-6.66 9.67 -7.32 9.34 -8 9 C-6.4169423 4.7257442 -3.49431596 2.73468206 0 0 Z " fill="#5C5C5C" transform="translate(277,254)"/>
<path d="M0 0 C0.66 0 1.32 0 2 0 C0.70700306 2.88437779 -0.65941363 4.87219421 -3 7 C-3.99 6.34 -4.98 5.68 -6 5 C-2.25 2 -2.25 2 0 2 C0 1.34 0 0.68 0 0 Z " fill="#545454" transform="translate(380,421)"/>
</svg>
